<?xml version="1.0" encoding="UTF-8"?>
<svg id="Layer_1" xmlns="http://www.w3.org/2000/svg" version="1.1" viewBox="0 0 255.07 242.87">
  <!-- Generator: Adobe Illustrator 29.6.1, SVG Export Plug-In . SVG Version: 2.1.1 Build 9)  -->
  <defs>
    <style>
      .st0 {
        fill: #fed700;
      }

      .st0, .st1 {
        stroke: #231f20;
        stroke-miterlimit: 10;
        stroke-width: .5px;
      }

      .st2 {
        fill: #449dd6;
      }

      .st1 {
        fill: #f37221;
      }

      .st3 {
        fill: #3b56a6;
      }
    </style>
  </defs>
  <polygon class="st2" points="177.48 121.43 127.48 121.43 152.48 78.13 177.48 121.43"/>
  <polygon class="st2" points="127.48 121.43 77.48 121.43 102.48 78.13 127.48 121.43"/>
  <polygon class="st3" points="152.48 78.13 127.48 121.43 102.48 78.13 152.48 78.13"/>
  <polygon class="st2" points="152.48 164.73 102.48 164.73 127.48 121.43 152.48 164.73"/>
  <polygon class="st3" points="127.48 121.43 102.48 164.73 77.48 121.43 127.48 121.43"/>
  <polygon class="st3" points="177.48 121.43 152.48 164.73 127.48 121.43 177.48 121.43"/>
  <rect class="st0" x="102.48" y="28.13" width="50" height="50"/>
  <polygon class="st1" points="171.79 .25 152.48 28.13 102.48 28.13 83.18 .25 171.79 .25"/>
  <polygon class="st1" points="254.62 143.7 210.31 220.44 195.82 189.78 220.82 146.48 254.62 143.7"/>
  <polygon class="st1" points="210.31 22.52 254.61 99.27 220.82 96.49 195.82 53.19 210.31 22.52"/>
  <polygon class="st1" points="171.79 242.62 83.18 242.62 102.48 214.73 152.48 214.73 171.79 242.62"/>
  <polygon class="st1" points="59.26 52.79 34.26 96.09 .46 98.87 44.77 22.13 59.26 52.79"/>
  <polygon class="st1" points="34.25 146.48 59.25 189.78 44.76 220.44 .46 143.7 34.25 146.48"/>
  <rect class="st0" x="43.33" y="62.28" width="50" height="50" transform="translate(-41.42 102.81) rotate(-60)"/>
  <polygon class="st0" points="220.79 96.43 220.74 96.46 177.48 121.43 152.48 78.13 195.79 53.13 195.85 53.24 220.79 96.43"/>
  <rect class="st0" x="43.33" y="130.58" width="50" height="50" transform="translate(-68.64 55.01) rotate(-30)"/>
  <rect class="st0" x="102.48" y="164.73" width="50" height="50"/>
  <rect class="st0" x="161.63" y="130.58" width="50" height="50.01" transform="translate(-41.42 239.41) rotate(-60)"/>
</svg>